<svg width="114" height="66" viewBox="0 0 114 66" fill="none" xmlns="http://www.w3.org/2000/svg">
<path d="M42.415 7.84318C-34.0778 -10.144 104.564 28.9435 74.7168 28.9435C44.8692 28.9435 5 31.7703 5 1.91198C68.772 22.2598 -0.527658 43 29.3199 43C59.1675 43 42.415 -22.0151 42.415 7.84318Z" fill="#DB6885"/>
<path d="M5.93112 58.832C5.78179 58.8133 5.64179 58.804 5.51112 58.804C5.38979 58.7947 5.30579 58.79 5.25912 58.79C5.22179 58.7807 5.20312 58.762 5.20312 58.734C5.13779 58.4353 5.09112 58.174 5.06312 57.95C5.03512 57.7167 5.01645 57.502 5.00712 57.306C4.99779 57.026 4.97445 56.7507 4.93712 56.48C4.90912 56.2 4.84379 55.8313 4.74112 55.374C4.21845 55.458 3.86845 55.5 3.69112 55.5C3.50445 55.5 3.36445 55.4673 3.27112 55.402C3.17778 55.3273 3.13112 55.2107 3.13112 55.052C3.13112 54.9587 3.18245 54.912 3.28512 54.912L3.70512 54.87C3.77045 54.8607 4.06912 54.8233 4.60112 54.758C4.58245 54.4873 4.54512 53.932 4.48912 53.092C4.46112 52.42 4.41912 51.8833 4.36312 51.482L2.61312 51.636C2.48245 51.72 2.37978 51.762 2.30512 51.762C2.19312 51.678 2.12312 51.5707 2.09512 51.44C2.31912 51.1973 2.85578 50.9967 3.70512 50.838C4.56379 50.6793 5.49245 50.6 6.49112 50.6C7.74179 50.6 8.81512 50.7353 9.71112 51.006C10.6071 51.2673 11.0925 51.6733 11.1671 52.224C10.8778 52.224 10.5978 52.1913 10.3271 52.126C10.0565 52.0607 9.71579 51.9627 9.30512 51.832C8.78245 51.6547 8.30179 51.5193 7.86312 51.426C7.43379 51.3327 6.94845 51.286 6.40712 51.286C6.06179 51.286 5.68379 51.314 5.27312 51.37C5.27312 52.238 5.29645 53.3347 5.34312 54.66L5.83312 54.618C7.32645 54.4967 8.19912 54.436 8.45112 54.436C8.57245 54.436 8.65645 54.4453 8.70312 54.464C8.74979 54.4733 8.78712 54.492 8.81512 54.52C8.82445 54.8 8.55845 55.0007 8.01712 55.122C7.47579 55.234 6.61712 55.3133 5.44112 55.36C5.48779 55.8173 5.57645 56.4147 5.70712 57.152C5.82845 57.8427 5.90312 58.4027 5.93112 58.832ZM18.7634 59.014C18.2128 59.014 17.7134 58.8927 17.2654 58.65C16.8268 58.398 16.4814 58.0527 16.2294 57.614C15.9868 57.166 15.8654 56.6573 15.8654 56.088C15.8654 55.1547 16.2061 54.4593 16.8874 54.002C17.5781 53.5447 18.4228 53.316 19.4214 53.316C19.8788 53.316 20.3034 53.428 20.6954 53.652C21.0968 53.876 21.4188 54.198 21.6614 54.618C21.9041 55.038 22.0254 55.5233 22.0254 56.074C22.0254 56.6713 21.8714 57.194 21.5634 57.642C21.2554 58.0807 20.8494 58.4213 20.3454 58.664C19.8508 58.8973 19.3234 59.014 18.7634 59.014ZM18.6094 58.216C19.4774 58.216 20.1354 58.02 20.5834 57.628C21.0314 57.236 21.2554 56.662 21.2554 55.906C21.2554 55.3927 21.0781 54.9493 20.7234 54.576C20.3781 54.2027 19.8928 54.016 19.2674 54.016C18.8474 54.016 18.4228 54.0953 17.9934 54.254C17.5641 54.4127 17.2094 54.6507 16.9294 54.968C16.6494 55.2853 16.5094 55.668 16.5094 56.116C16.5094 56.4893 16.6028 56.8393 16.7894 57.166C16.9761 57.4833 17.2281 57.74 17.5454 57.936C17.8721 58.1227 18.2268 58.216 18.6094 58.216ZM31.1469 59.014C30.5962 59.014 30.0969 58.8927 29.6489 58.65C29.2102 58.398 28.8649 58.0527 28.6129 57.614C28.3702 57.166 28.2489 56.6573 28.2489 56.088C28.2489 55.1547 28.5895 54.4593 29.2709 54.002C29.9615 53.5447 30.8062 53.316 31.8049 53.316C32.2622 53.316 32.6869 53.428 33.0789 53.652C33.4802 53.876 33.8022 54.198 34.0449 54.618C34.2875 55.038 34.4089 55.5233 34.4089 56.074C34.4089 56.6713 34.2549 57.194 33.9469 57.642C33.6389 58.0807 33.2329 58.4213 32.7289 58.664C32.2342 58.8973 31.7069 59.014 31.1469 59.014ZM30.9929 58.216C31.8609 58.216 32.5189 58.02 32.9669 57.628C33.4149 57.236 33.6389 56.662 33.6389 55.906C33.6389 55.3927 33.4615 54.9493 33.1069 54.576C32.7615 54.2027 32.2762 54.016 31.6509 54.016C31.2309 54.016 30.8062 54.0953 30.3769 54.254C29.9475 54.4127 29.5929 54.6507 29.3129 54.968C29.0329 55.2853 28.8929 55.668 28.8929 56.116C28.8929 56.4893 28.9862 56.8393 29.1729 57.166C29.3595 57.4833 29.6115 57.74 29.9289 57.936C30.2555 58.1227 30.6102 58.216 30.9929 58.216ZM43.0263 58.986C42.5876 58.986 42.205 58.8367 41.8783 58.538C41.561 58.2393 41.3183 57.852 41.1503 57.376C40.9916 56.9 40.9123 56.4053 40.9123 55.892C40.9123 54.996 41.099 54.24 41.4723 53.624C41.855 53.008 42.4336 52.7 43.2083 52.7C43.675 52.7 44.081 52.784 44.4263 52.952C44.781 53.1107 45.243 53.3813 45.8123 53.764L46.1763 54.016C46.1296 53.708 46.0596 53.3533 45.9663 52.952C45.873 52.5507 45.8123 52.2753 45.7843 52.126C45.6256 51.398 45.509 50.8567 45.4343 50.502C45.369 50.138 45.3363 49.816 45.3363 49.536C45.3363 49.0413 45.4763 48.794 45.7563 48.794C45.859 49.018 45.9803 49.4987 46.1203 50.236C46.2603 50.964 46.4376 51.9627 46.6523 53.232C46.8763 54.576 47.0723 55.6727 47.2403 56.522C47.4083 57.3713 47.5483 57.9033 47.6603 58.118C47.6603 58.3327 47.5016 58.44 47.1843 58.44C46.9416 58.44 46.7736 58.3 46.6803 58.02C46.5963 57.74 46.545 57.25 46.5263 56.55H46.4143C46.0223 57.2593 45.5136 57.8427 44.8883 58.3C44.263 58.7573 43.6423 58.986 43.0263 58.986ZM43.2083 58.3C43.591 58.3 44.0016 58.1413 44.4403 57.824C44.8883 57.4973 45.2663 57.1053 45.5743 56.648C45.8823 56.1813 46.0363 55.7613 46.0363 55.388V54.968C45.075 53.96 44.1883 53.456 43.3763 53.456C42.807 53.456 42.3683 53.666 42.0603 54.086C41.7523 54.4967 41.5983 55.038 41.5983 55.71L41.6123 56.004C41.6683 56.7133 41.827 57.2733 42.0883 57.684C42.3496 58.0947 42.723 58.3 43.2083 58.3ZM54.5416 59.014C54.327 59.014 54.1543 58.7013 54.0236 58.076C53.893 57.4413 53.809 56.8953 53.7716 56.438C53.7343 55.9807 53.683 55.2573 53.6176 54.268C53.6083 54.1093 53.6036 53.904 53.6036 53.652C53.6036 53.3347 53.627 53.1153 53.6736 52.994C53.7296 52.8727 53.8183 52.812 53.9396 52.812C54.0423 52.812 54.1216 52.8353 54.1776 52.882C54.243 52.9193 54.299 52.9847 54.3456 53.078L54.3316 53.638C54.3316 54.2353 54.3596 54.8 54.4156 55.332C54.481 55.864 54.579 56.578 54.7096 57.474C54.7843 57.866 54.8356 58.188 54.8636 58.44C54.8823 58.5707 54.859 58.7013 54.7936 58.832C54.7283 58.9533 54.6443 59.014 54.5416 59.014ZM54.1916 51.314C53.9863 51.314 53.8323 51.2347 53.7296 51.076C53.6363 50.9173 53.5896 50.7213 53.5896 50.488C53.5896 50.3853 53.5943 50.3107 53.6036 50.264C53.5943 50.1147 53.6783 50.04 53.8556 50.04C53.9863 50.04 54.117 50.0727 54.2476 50.138C54.3876 50.194 54.4296 50.236 54.3736 50.264C54.467 50.5067 54.5136 50.698 54.5136 50.838C54.5136 50.9593 54.4856 51.0573 54.4296 51.132C54.3736 51.1973 54.2943 51.258 54.1916 51.314ZM65.7933 58.468C66.5586 58.468 67.1513 58.3607 67.5713 58.146C67.9913 57.9313 68.2013 57.6187 68.2013 57.208C68.2013 56.844 68.0753 56.5313 67.8233 56.27C67.5713 55.9993 67.2586 55.7707 66.8853 55.584C66.5119 55.3973 66.0033 55.178 65.3593 54.926C65.3033 54.9073 65.1679 54.856 64.9533 54.772C64.0759 54.4173 63.3993 54.0627 62.9233 53.708C62.4566 53.3533 62.2233 52.896 62.2233 52.336C62.2233 51.7107 62.4706 51.2393 62.9653 50.922C63.4599 50.6047 64.0946 50.446 64.8693 50.446C65.4386 50.446 65.9613 50.5207 66.4373 50.67C66.9226 50.81 67.3053 51.006 67.5853 51.258C67.8746 51.51 68.0193 51.7947 68.0193 52.112C67.9073 52.168 67.7999 52.196 67.6973 52.196C67.5853 52.196 67.4686 52.1727 67.3473 52.126C67.2353 52.07 67.0673 51.9813 66.8433 51.86C66.4793 51.664 66.1386 51.51 65.8213 51.398C65.5039 51.2767 65.1306 51.216 64.7013 51.216C64.1599 51.216 63.7213 51.3093 63.3853 51.496C63.0493 51.6827 62.8813 51.944 62.8813 52.28C62.8813 52.5413 62.9933 52.7793 63.2173 52.994C63.4506 53.2087 63.7399 53.4 64.0853 53.568C64.4399 53.7267 64.9113 53.918 65.4993 54.142C66.2459 54.4313 66.8619 54.702 67.3473 54.954C67.8326 55.206 68.2433 55.528 68.5793 55.92C68.9246 56.3027 69.0973 56.76 69.0973 57.292C69.0973 57.9173 68.7986 58.4027 68.2013 58.748C67.6039 59.084 66.8619 59.252 65.9753 59.252C65.2753 59.252 64.5846 59.1493 63.9033 58.944C63.2219 58.7387 62.6386 58.4353 62.1533 58.034C61.6679 57.6233 61.3599 57.1333 61.2293 56.564C61.2293 56.312 61.2993 56.0973 61.4393 55.92C61.5793 55.7333 61.7519 55.64 61.9573 55.64C61.9573 56.2467 62.1253 56.7647 62.4613 57.194C62.8066 57.614 63.2686 57.9313 63.8473 58.146C64.4353 58.3607 65.0839 58.468 65.7933 58.468ZM76.8617 58.972C76.815 58.9813 76.7637 58.804 76.7077 58.44C76.661 58.076 76.5957 57.4507 76.5117 56.564C76.381 55.108 76.2317 53.7733 76.0637 52.56C75.905 51.3467 75.7044 50.2967 75.4617 49.41C75.443 49.3353 75.471 49.27 75.5457 49.214C75.6204 49.158 75.723 49.13 75.8537 49.13C75.919 49.13 75.9704 49.1347 76.0077 49.144C76.241 49.7787 76.4044 50.3387 76.4977 50.824C76.6004 51.3093 76.6937 51.9067 76.7777 52.616L76.8477 53.162C77.4077 52.826 77.921 52.658 78.3877 52.658C79.237 52.658 79.839 53.0453 80.1937 53.82C80.5577 54.5853 80.7397 55.6773 80.7397 57.096C80.7397 57.6373 80.707 58.0947 80.6417 58.468C80.5764 58.832 80.497 59.014 80.4037 59.014C80.2824 59.014 80.147 58.9253 79.9977 58.748V58.286L80.0117 56.76C80.0117 56.4707 80.0024 56.1113 79.9837 55.682C79.9557 54.954 79.8064 54.4033 79.5357 54.03C79.2744 53.6567 78.8217 53.47 78.1777 53.47C77.7484 53.47 77.347 53.6287 76.9737 53.946C76.9737 54.3007 76.9877 54.6647 77.0157 55.038C77.053 55.4113 77.095 55.7753 77.1417 56.13C77.207 56.6247 77.2537 57.0633 77.2817 57.446C77.319 57.8193 77.3377 58.2347 77.3377 58.692C77.2817 58.804 77.2164 58.8787 77.1417 58.916C77.0764 58.9533 76.983 58.972 76.8617 58.972ZM89.9742 59.014C89.4236 59.014 88.9242 58.8927 88.4762 58.65C88.0376 58.398 87.6922 58.0527 87.4402 57.614C87.1976 57.166 87.0762 56.6573 87.0762 56.088C87.0762 55.1547 87.4169 54.4593 88.0982 54.002C88.7889 53.5447 89.6336 53.316 90.6322 53.316C91.0896 53.316 91.5142 53.428 91.9062 53.652C92.3076 53.876 92.6296 54.198 92.8722 54.618C93.1149 55.038 93.2362 55.5233 93.2362 56.074C93.2362 56.6713 93.0822 57.194 92.7742 57.642C92.4662 58.0807 92.0602 58.4213 91.5562 58.664C91.0616 58.8973 90.5342 59.014 89.9742 59.014ZM89.8202 58.216C90.6882 58.216 91.3462 58.02 91.7942 57.628C92.2422 57.236 92.4662 56.662 92.4662 55.906C92.4662 55.3927 92.2889 54.9493 91.9342 54.576C91.5889 54.2027 91.1036 54.016 90.4782 54.016C90.0582 54.016 89.6336 54.0953 89.2042 54.254C88.7749 54.4127 88.4202 54.6507 88.1402 54.968C87.8602 55.2853 87.7202 55.668 87.7202 56.116C87.7202 56.4893 87.8136 56.8393 88.0002 57.166C88.1869 57.4833 88.4389 57.74 88.7562 57.936C89.0829 58.1227 89.4376 58.216 89.8202 58.216ZM101.112 63.984C100.925 63.984 100.701 63.4847 100.44 62.486C100.188 61.4873 99.959 60.3767 99.7537 59.154C99.5577 57.9407 99.4597 57.1753 99.4597 56.858C99.4597 55.9153 99.777 55.2293 100.412 54.8C101.046 54.3613 101.863 54.142 102.862 54.142C103.394 54.142 103.898 54.254 104.374 54.478C104.85 54.6927 105.232 55.0053 105.522 55.416C105.811 55.8173 105.956 56.284 105.956 56.816C105.956 57.4787 105.722 57.9453 105.256 58.216C104.798 58.4867 104.22 58.622 103.52 58.622C102.792 58.622 102.171 58.5007 101.658 58.258C101.154 58.006 100.902 57.6653 100.902 57.236L100.916 57.096C100.981 57.0213 101.051 56.984 101.126 56.984C101.191 56.984 101.261 57.012 101.336 57.068C101.42 57.1147 101.508 57.1707 101.602 57.236C101.891 57.4507 102.176 57.6233 102.456 57.754C102.745 57.8847 103.104 57.95 103.534 57.95C104.122 57.95 104.537 57.8473 104.78 57.642C105.032 57.4273 105.158 57.0913 105.158 56.634C105.158 56.298 105.046 55.9993 104.822 55.738C104.598 55.4767 104.308 55.276 103.954 55.136C103.599 54.996 103.235 54.926 102.862 54.926C101.994 54.926 101.34 55.1127 100.902 55.486C100.463 55.85 100.267 56.4613 100.314 57.32C100.398 58.776 100.528 59.9987 100.706 60.988C100.892 61.9773 101.214 62.8173 101.672 63.508L101.686 63.536C101.686 63.5547 101.662 63.5733 101.616 63.592C101.578 63.62 101.55 63.6433 101.532 63.662C101.42 63.8393 101.28 63.9467 101.112 63.984Z" fill="#DB6885"/>
</svg>
